HIERARCHY
ROOT Hips
{
	OFFSET 0.000000 89.005402 0.000000
	CHANNELS 6 Xposition Yposition Zposition Xrotation Yrotation Zrotation
	JOINT Spine
	{
		OFFSET 0.116900 10.681000 0.373400
		CHANNELS 3 Xrotation Yrotation Zrotation
		JOINT Spine1
		{
			OFFSET 0.000000 13.840401 0.053500
			CHANNELS 3 Xrotation Yrotation Zrotation
			JOINT Spine2
			{
				OFFSET 0.000000 14.712700 -0.366200
				CHANNELS 3 Xrotation Yrotation Zrotation
				JOINT Neck
				{
					OFFSET 0.000000 35.415497 -3.314200
					CHANNELS 3 Xrotation Yrotation Zrotation
					JOINT Head
					{
						OFFSET 0.000000 16.899200 1.218300
						CHANNELS 3 Xrotation Yrotation Zrotation
						JOINT HeadTop_End
						{
							OFFSET 0.000000 22.206207 2.192500
							CHANNELS 3 Xrotation Yrotation Zrotation
							End Site
							{
								OFFSET 0.000000 22.314178 0.000000
							}
						}
					}
				}
				JOINT LeftShoulder
				{
					OFFSET 12.896400 26.716293 -4.548400
					CHANNELS 3 Xrotation Yrotation Zrotation
					JOINT LeftArm
					{
						OFFSET 19.027000 -4.857010 -1.718400
						CHANNELS 3 Xrotation Yrotation Zrotation
						JOINT LeftForeArm
						{
							OFFSET 24.179897 0.000000 0.000000
							CHANNELS 3 Xrotation Yrotation Zrotation
							JOINT LeftHand
							{
								OFFSET 27.156403 0.000000 0.000000
								CHANNELS 3 Xrotation Yrotation Zrotation
								JOINT LeftHandIndex1
								{
									OFFSET 16.441200 0.000000 0.000000
									CHANNELS 3 Xrotation Yrotation Zrotation
									JOINT LeftHandIndex2
									{
										OFFSET 4.821899 0.000000 0.000000
										CHANNELS 3 Xrotation Yrotation Zrotation
										JOINT LeftHandIndex3
										{
											OFFSET 6.386497 0.000000 0.000000
											CHANNELS 3 Xrotation Yrotation Zrotation
											JOINT LeftHandIndex4
											{
												OFFSET 5.188988 0.000000 0.000000
												CHANNELS 3 Xrotation Yrotation Zrotation
												End Site
												{
													OFFSET -0.178703 5.185913 0.000177
												}
											}
										}
									}
								}
								JOINT LeftHandThumb1
								{
									OFFSET 6.534897 -5.032593 5.900300
									CHANNELS 3 Xrotation Yrotation Zrotation
									JOINT LeftHandThumb2
									{
										OFFSET 3.818176 -2.204422 2.204423
										CHANNELS 3 Xrotation Yrotation Zrotation
										JOINT LeftHandThumb3
										{
											OFFSET 3.252098 -1.877594 1.877601
											CHANNELS 3 Xrotation Yrotation Zrotation
											JOINT LeftHandThumb4
											{
												OFFSET 5.251778 -3.032120 3.032117
												CHANNELS 3 Xrotation Yrotation Zrotation
												End Site
												{
													OFFSET 0.000023 6.780014 0.000000
												}
											}
										}
									}
								}
							}
						}
					}
				}
				JOINT RightShoulder
				{
					OFFSET -12.896300 26.716293 -4.548400
					CHANNELS 3 Xrotation Yrotation Zrotation
					JOINT RightArm
					{
						OFFSET -19.027000 -4.857010 -1.718400
						CHANNELS 3 Xrotation Yrotation Zrotation
						JOINT RightForeArm
						{
							OFFSET -24.179897 0.000000 0.000000
							CHANNELS 3 Xrotation Yrotation Zrotation
							JOINT RightHand
							{
								OFFSET -27.156403 0.000000 0.000000
								CHANNELS 3 Xrotation Yrotation Zrotation
								JOINT RightHandThumb1
								{
									OFFSET -6.591202 -4.852203 5.988100
									CHANNELS 3 Xrotation Yrotation Zrotation
									JOINT RightHandThumb2
									{
										OFFSET -3.818176 -2.204422 2.204423
										CHANNELS 3 Xrotation Yrotation Zrotation
										JOINT RightHandThumb3
										{
											OFFSET -3.252098 -1.877594 1.877601
											CHANNELS 3 Xrotation Yrotation Zrotation
											JOINT RightHandThumb4
											{
												OFFSET -5.251778 -3.032120 3.032117
												CHANNELS 3 Xrotation Yrotation Zrotation
												End Site
												{
													OFFSET -0.000023 6.780014 0.000000
												}
											}
										}
									}
								}
								JOINT RightHandIndex1
								{
									OFFSET -16.029404 0.000000 0.000000
									CHANNELS 3 Xrotation Yrotation Zrotation
									JOINT RightHandIndex2
									{
										OFFSET -5.213303 0.000000 0.000000
										CHANNELS 3 Xrotation Yrotation Zrotation
										JOINT RightHandIndex3
										{
											OFFSET -6.386528 0.000000 0.000000
											CHANNELS 3 Xrotation Yrotation Zrotation
											JOINT RightHandIndex4
											{
												OFFSET -5.189026 0.000000 0.000000
												CHANNELS 3 Xrotation Yrotation Zrotation
												End Site
												{
													OFFSET 0.236702 5.183624 0.001972
												}
											}
										}
									}
								}
							}
						}
					}
				}
			}
		}
	}
	JOINT LeftUpLeg
	{
		OFFSET 14.073000 -7.904099 -1.463000
		CHANNELS 3 Xrotation Yrotation Zrotation
		JOINT LeftLeg
		{
			OFFSET -0.109806 -34.073280 4.093200
			CHANNELS 3 Xrotation Yrotation Zrotation
			JOINT LeftFoot
			{
				OFFSET 0.109806 -29.899420 -6.319000
				CHANNELS 3 Xrotation Yrotation Zrotation
				JOINT LeftToeBase
				{
					OFFSET 1.551100 -14.988700 20.535801
					CHANNELS 3 Xrotation Yrotation Zrotation
					JOINT LeftToe_End
					{
						OFFSET 0.221200 0.570800 13.248301
						CHANNELS 3 Xrotation Yrotation Zrotation
						End Site
						{
							OFFSET 0.000000 13.262435 0.000000
						}
					}
				}
			}
		}
	}
	JOINT RightUpLeg
	{
		OFFSET -13.839300 -7.904099 -1.463000
		CHANNELS 3 Xrotation Yrotation Zrotation
		JOINT RightLeg
		{
			OFFSET 0.109694 -34.073219 4.093300
			CHANNELS 3 Xrotation Yrotation Zrotation
			JOINT RightFoot
			{
				OFFSET -0.109694 -29.899384 -6.319200
				CHANNELS 3 Xrotation Yrotation Zrotation
				JOINT RightToeBase
				{
					OFFSET -1.551100 -14.988700 20.535801
					CHANNELS 3 Xrotation Yrotation Zrotation
					JOINT RightToe_End
					{
						OFFSET -0.221200 0.570900 13.248299
						CHANNELS 3 Xrotation Yrotation Zrotation
						End Site
						{
							OFFSET 0.000000 13.262440 0.000000
						}
					}
				}
			}
		}
	}
}
MOTION
Frames: 4
Frame Time: 0.033333
-0.282582 76.806770 -0.260909 9.538360 -61.600738 10.133420 15.063834 -0.338981 -4.273946 5.872396 0.563947 -2.798220 5.868717 0.648186 -2.860165 -3.632884 1.437149 3.747496 -20.005959 54.836778 2.407371 0.000000 -0.000000 0.000000 1.828097 -3.192676 -12.271571 -39.387396 26.350486 -34.911115 0.429361 -46.808444 0.416190 -10.315054 -0.130703 0.363025 6.882247 2.840065 -61.140411 8.248002 7.640064 -89.897878 2.146099 8.173447 -41.827734 0.000000 0.000001 0.000003 40.109941 -15.297158 -0.360505 5.639817 28.097920 11.338845 1.088589 40.896290 22.734011 0.000002 -0.000001 0.000000 0.632604 7.257353 8.700389 7.936009 -9.680152 53.429913 -22.867437 36.194699 17.955451 -27.369919 10.432893 -17.813545 -2.346176 -6.100557 10.731428 2.364051 -23.806300 -8.771056 -5.012459 13.984834 5.861507 -0.000000 -0.000001 0.000001 -0.054756 0.532088 0.738727 0.019778 -0.087305 5.078509 -0.003983 -2.004383 -2.834032 0.000001 -0.000002 0.000000 -36.361492 10.831769 26.537696 36.964827 -8.459201 0.826389 -6.674040 -1.252024 -18.599237 -1.836416 -0.000612 -0.000026 -0.000000 0.000001 0.000000 -28.592492 -19.587220 -35.873639 36.370631 5.997669 -3.537230 -14.562610 -1.220526 25.671076 -0.001688 -0.000451 0.000003 -0.000000 -0.000000 0.000000 
-1.185586 76.680374 -2.576540 0.652847 -63.831909 5.269044 14.233766 0.713775 -2.896804 4.121358 1.851217 -2.301527 4.128365 1.921047 -2.370919 12.474296 3.573998 -9.728038 -6.129588 43.502728 -5.153786 -0.000002 0.000001 0.000001 2.020679 -1.659149 -14.455404 -35.471563 26.563769 -37.317729 10.247168 -46.812576 7.482246 -10.399610 -1.078294 6.178590 6.882246 2.840062 -61.140411 8.248002 7.640060 -89.897878 2.146101 8.173447 -41.827737 -0.000003 0.000001 -0.000000 40.109934 -15.297163 -0.360502 5.639815 28.097916 11.338851 1.088588 40.896287 22.734015 0.000001 0.000001 0.000001 0.672587 10.898748 11.062195 3.225670 -9.988690 42.091188 -15.308563 41.406451 12.199647 -18.743531 3.539151 -16.783662 -6.931871 -7.933802 8.630422 3.072911 -26.250415 -9.038648 0.259293 3.901821 2.403879 -0.000001 -0.000001 -0.000003 -0.033983 0.174553 3.212982 0.030129 -0.083382 18.883764 0.006137 -1.977686 5.878378 -0.000000 0.000002 -0.000001 -28.735255 13.634844 25.840805 32.014879 -7.918891 0.691391 -4.586718 -1.296216 -20.985109 -2.048193 0.016080 -0.466103 -0.000000 0.000000 0.000000 -29.067933 -18.351497 -38.870050 42.721880 8.260855 -3.798922 -18.495287 -0.252366 22.964896 -0.001706 -0.000437 0.000011 -0.000000 -0.000000 0.000000 
-2.893163 76.439857 -8.776599 -12.369553 -62.381579 -3.099971 12.506569 0.196842 -2.287533 0.271307 0.800924 -0.601499 0.270055 0.873822 -0.667456 33.376682 6.374070 -13.789991 8.408327 26.144841 -8.113804 0.000001 0.000001 0.000000 3.666766 4.263472 -14.741993 -22.100674 25.804211 -55.597255 48.741210 -35.184610 33.735858 -10.742170 -5.734029 16.656931 6.882246 2.840063 -61.140411 8.248002 7.640065 -89.897878 2.146102 8.173447 -41.827737 -0.000000 0.000000 0.000000 40.109934 -15.297161 -0.360502 5.639818 28.097920 11.338850 1.088587 40.896294 22.734011 -0.000001 -0.000000 -0.000003 -0.068515 17.584899 15.964468 -8.183970 3.115313 19.526450 -3.679580 40.651298 3.166639 -7.404121 -4.134446 -17.519119 -11.486142 -9.346370 6.545859 3.740984 -28.598130 -9.278751 4.826597 -5.987218 0.023607 -0.000001 0.000000 -0.000001 0.018659 -0.164338 5.585298 0.036005 -0.082120 32.114750 0.014247 -1.992123 14.231279 0.000001 -0.000003 0.000001 -18.754702 11.965805 23.483579 24.987646 -7.236993 3.860221 -0.810471 -1.794547 -21.390257 -2.905457 0.139922 -2.353100 0.000000 0.000002 0.000000 -27.510960 -19.498817 -39.864597 52.750149 7.551694 -4.387091 -26.326906 1.048614 17.846019 -0.001701 -0.000451 0.000001 0.000000 -0.000000 0.000000 
-3.645917 75.914360 -14.225204 -17.145783 -54.922121 -6.844749 11.655446 -0.754735 -1.851928 -2.145687 -1.104056 0.774874 -2.155470 -1.021742 0.714920 32.581594 9.001915 -4.496706 7.323692 17.350750 -5.661437 -0.000003 0.000000 -0.000000 3.175526 2.317454 -7.458187 -19.221182 27.034763 -65.921407 61.123499 -22.506003 37.466770 -11.280428 -9.556195 16.842149 6.882250 2.840060 -61.140411 8.248002 7.640062 -89.897878 2.146102 8.173446 -41.827740 -0.000000 -0.000000 -0.000003 40.109938 -15.297160 -0.360502 5.639817 28.097921 11.338850 1.088588 40.896290 22.734011 -0.000001 -0.000000 0.000004 0.777658 18.348791 12.567914 -4.510007 19.105395 6.685633 7.294643 37.463557 -3.701969 4.220549 0.251352 3.408473 -12.932312 -9.715848 5.887772 3.947014 -29.330164 -9.350248 6.197621 -9.099358 -0.550157 0.000002 0.000000 0.000001 0.040923 -0.268907 6.324555 0.039445 -0.081091 36.235523 0.020758 -2.006839 16.834729 0.000002 0.000000 0.000000 -17.679017 11.338591 26.563577 31.463543 0.433562 3.269006 -0.797363 -2.128001 -15.582117 -2.196649 0.037463 -0.791746 -0.000000 -0.000001 0.000000 -22.470171 -24.292282 -35.910140 57.575872 4.143330 -4.889713 -32.123274 -1.923928 14.814279 -0.001701 -0.000458 0.000001 0.000000 -0.000000 -0.000000 
